<svg xmlns="http://www.w3.org/2000/svg" viewBox="0 0 1400 700"><path d="M531.4 520.9l-14.9-45.7h-80.6l-16 45.7h-33.1l88-219.7h7.8l81.7 219.7h-32.9zM477.3 358l-33.6 95.4H508L477.3 358zm230 162.9l-57.9-93.1c-6.6 0-17.1-.5-31.4-1.5v94.5h-29.6V304.1c1.1 0 8.8-.4 23-1.1 14.3-.7 24.6-1.1 31.1-1.1 52.1 0 78.1 20.7 78.1 62.1 0 13.6-4.2 25.9-12.6 36.8-8.4 10.9-18.3 17.7-29.9 20.3l62.9 99.7h-33.7v.1zm-89.2-190.1v70.4c7.1 1 14 1.5 20.7 1.5 17.8 0 30.7-2.9 38.8-8.6 8.1-5.7 12.1-15.9 12.1-30.6 0-12.1-4.3-20.9-13-26.2-8.7-5.3-22.4-8-41.1-8-3 0-8.8.5-17.5 1.5zm285.4 193.1l-112-158.5v155.5h-28.1V304.1h11.8l109 149.9V304.1h28.1v219.7h-8.8zm58.5-3V304.1h29.6v216.8H962zm198.7 0l-61.1-99.7-28.9 41v58.7h-29.6V304.1h29.6V422l80.5-117.9h33l-64.8 94 74 122.8h-32.7zm178 0l-14.9-45.7h-80.6l-16 45.7H1194l88-219.7h7.8l81.7 219.7h-32.8zM1284.5 358l-33.6 95.4h64.4l-30.8-95.4z" fill="#444"/><linearGradient id="a" gradientUnits="userSpaceOnUse" x1="23.158" y1="839.354" x2="256.776" y2="347.518" gradientTransform="matrix(.9382 0 0 -.9382 0 729.068)"><stop offset=".313" stop-color="#3cbc80"/><stop offset=".501" stop-color="#3bba7e"/><stop offset=".599" stop-color="#39b279"/><stop offset=".675" stop-color="#34a470"/><stop offset=".741" stop-color="#2e9163"/><stop offset=".8" stop-color="#277952"/><stop offset=".854" stop-color="#1d5a3d"/><stop offset=".905" stop-color="#113625"/><stop offset=".951" stop-color="#040d09"/><stop offset=".964"/></linearGradient><path fill="url(#a)" d="M338 330.2s-104.1-98-159.1-140.1C114.7 141 5.4 73.2 5.4 73.2s-19 88.6 17.2 145.3c76.8 120.4 278.9 159.1 278.9 159.1l36.5-47.4z"/><linearGradient id="b" gradientUnits="userSpaceOnUse" x1="-6.313" y1="553.857" x2="261.451" y2="242.05" gradientTransform="matrix(.9382 0 0 -.9382 0 729.068)"><stop offset=".412" stop-color="#3c9ac7"/><stop offset=".613" stop-color="#3b99c5"/><stop offset=".685" stop-color="#3993be"/><stop offset=".737" stop-color="#368ab3"/><stop offset=".779" stop-color="#317da2"/><stop offset=".815" stop-color="#2a6c8c"/><stop offset=".846" stop-color="#225770"/><stop offset=".875" stop-color="#183e50"/><stop offset=".9" stop-color="#0d222c"/><stop offset=".924" stop-color="#010203"/><stop offset=".925"/></linearGradient><path fill="url(#b)" d="M338 330.2s-33.2 2.4-65.9 15.6c-27.1 10.9-89.8 39.3-127 65.9C90.8 450.5 19.7 519 19.7 519s54.9 27.7 103.1 13C225.2 500.7 306 371.5 306 371.5l32-41.3z"/><linearGradient id="c" gradientUnits="userSpaceOnUse" x1="116.206" y1="657.711" x2="397.06" y2="277.39" gradientTransform="matrix(.9382 0 0 -.9382 0 729.068)"><stop offset=".285" stop-color="#3c9ac7"/><stop offset=".565" stop-color="#3b99c5"/><stop offset=".666" stop-color="#3993be"/><stop offset=".738" stop-color="#368ab3"/><stop offset=".796" stop-color="#317da2"/><stop offset=".846" stop-color="#2a6c8c"/><stop offset=".89" stop-color="#225770"/><stop offset=".93" stop-color="#183e50"/><stop offset=".965" stop-color="#0d222c"/><stop offset=".998" stop-color="#010203"/><stop offset="1"/></linearGradient><path fill="url(#c)" d="M300.4 505.2c-7.3 5.3-18.3 10.8-29.7 14.9-9.8 3.5-26.3 10.3-24.6 5.9 15.9-40.8 110.5-214.3 155.7-231.3 19.3-7.2 20.1 23.5 19.3 30-.6 4.8-5.9 16.3-6.2 16.8-13.3 23-41.5 15.4-41.5 15.4s-52.2 133.2-73 148.3z"/><linearGradient id="d" gradientUnits="userSpaceOnUse" x1="75.409" y1="135.483" x2="1489.333" y2="135.483" gradientTransform="matrix(.9382 0 0 -.9382 0 729.068)"><stop offset=".047" stop-color="#3c9ac7"/><stop offset=".102" stop-color="#3ca3b4"/><stop offset=".187" stop-color="#3cae9d"/><stop offset=".278" stop-color="#3cb68d"/><stop offset=".381" stop-color="#3cbb83"/><stop offset=".516" stop-color="#3cbc80"/><stop offset=".622" stop-color="#3cba84"/><stop offset=".729" stop-color="#3cb490"/><stop offset=".837" stop-color="#3caaa5"/><stop offset=".945" stop-color="#3c9dc1"/><stop offset=".964" stop-color="#3c9ac7"/></linearGradient><path fill="url(#d)" d="M70.7 603.8s5.1-1 14.7-2.6c4.8-.9 10.7-1.8 17.7-2.8 7-1.1 15-2.2 24.1-3.3 9-1.1 19-2.5 29.9-3.6 10.9-1.1 22.7-2.3 35.3-3.5 12.6-1.4 26.1-2.1 40.3-3.2 7.1-.5 14.4-1 21.8-1.6 7.4-.5 15.1-.9 22.9-1.3 15.6-.9 31.8-1.5 48.6-2.4 16.8-.5 34.2-1 52.1-1.5 8.9-.2 18-.4 27.2-.6 9.2 0 18.5.1 27.9.1 18.9.3 38.2.8 57.6 1.5 39 1.4 79.2 3.7 120 6.2s82.2 5.1 123.6 7.7c41.4 2.7 82.8 5.3 123.5 7.4 40.7 2 80.8 4.1 119.6 5.2 19.4.7 38.4.9 57.1 1.2 18.7.2 37 .3 54.8.5 8.9.1 17.7.2 26.4.3 8.6 0 17.2-.1 25.5-.1 16.7 0 32.9 0 48.5-.1 31.1-.3 59.6-.6 84.9-.9 12.6-.2 24.5-.3 35.4-.6 10.9-.2 21-.4 30.1-.5 18.2-.4 32.4-.8 42.2-1 9.7-.3 14.9-.4 14.9-.4s-5.2.6-14.8 1.8c-9.7 1.2-23.9 2.8-42 4.6-18.1 1.7-40.1 3.9-65.3 5.7-12.6.9-26.1 2.2-40.2 2.9-14.2.8-29.1 1.7-44.7 2.6-15.6.9-31.8 1.6-48.6 2.2-8.4.3-17 .7-25.6 1-8.7.2-17.5.5-26.4.7-17.9.4-36.1 1-55 1.1-18.8 0-38 .1-57.5-.3-19.5-.2-39.3-.8-59.4-1.3-10-.3-20.1-.7-30.3-1.1-10.1-.4-20.3-.8-30.5-1.4-40.9-1.9-82.4-4.3-123.8-6.8-41.5-2.5-82.9-5.5-123.6-8.2-40.7-2.7-80.8-5.1-119.6-7.2-19.4-1.1-38.3-1.8-56.9-2.4-9.3-.2-18.5-.4-27.7-.5-9.1 0-18.1-.1-27-.1-17.8-.2-35.1-.4-51.9-.5-16.7.1-32.9.3-48.5.3-7.8 0-15.4-.1-22.8.1-7.4.1-14.7.3-21.8.4-7.1.1-14 .3-20.7.4-6.7.1-13.2.1-19.5.4-12.6.4-24.4.7-35.4 1.1-10.9.4-21 .9-30 1.2-9.1.3-17.2.9-24.2 1.2-7 .4-13 .6-17.9 1-9.8.5-15 1-15 1z"/></svg>