<svg xmlns="http://www.w3.org/2000/svg" viewBox="40.6 0 1139.9 569.6"><path d="M803.6 336c.1 3.7-2.6 6.6-6.8 6.6-3.8 0-6.4-2.9-6.4-6.6 0-3.8 2.8-6.7 6.7-6.7 4 .1 6.5 3 6.5 6.7zm-11.9 75.5v-58.9h10.7v58.9h-10.7zm39.4-82v34.3h39.7v-34.3h10.7v82h-10.7V373h-39.7v38.4h-10.6v-82h10.6zm74.4 54.5c.2 14.5 9.5 20.4 20.2 20.4 7.7 0 12.3-1.3 16.3-3l1.8 7.7c-3.8 1.7-10.2 3.7-19.6 3.7-18.1 0-29-11.9-29-29.7s10.5-31.8 27.6-31.8c19.2 0 24.3 16.9 24.3 27.7 0 2.2-.2 3.9-.4 5h-41.2zm31.3-7.7c.1-6.8-2.8-17.4-14.8-17.4-10.8 0-15.6 10-16.4 17.4h31.2zm56.3 35.2l-.9-7.4h-.4c-3.3 4.6-9.6 8.8-18 8.8-11.9 0-18-8.4-18-16.9 0-14.2 12.7-22 35.4-21.9v-1.2c0-4.9-1.3-13.6-13.4-13.6-5.5 0-11.2 1.7-15.3 4.4l-2.4-7.1c4.9-3.2 11.9-5.2 19.3-5.2 18 0 22.4 12.3 22.4 24.1v22c0 5.1.2 10.1 1 14.1h-9.7zm-1.6-30.1c-11.7-.2-24.9 1.8-24.9 13.3 0 6.9 4.6 10.2 10.1 10.2 7.7 0 12.5-4.9 14.2-9.9.4-1.1.6-2.3.6-3.4v-10.2zm27.6-56.3h10.7v86.4h-10.7v-86.4zm41.6 10.6v16.9h15.3v8.2h-15.3v31.8c0 7.3 2.1 11.4 8 11.4 2.8 0 4.9-.4 6.2-.7l.5 8c-2.1.9-5.4 1.5-9.5 1.5-5 0-9-1.6-11.6-4.5-3-3.2-4.1-8.4-4.1-15.3v-32.1h-9.1v-8.2h9.1v-14.1l10.5-2.9zm27.4-10.6h10.7v36.7h.2c1.7-3 4.4-5.7 7.7-7.5 3.2-1.8 6.9-3 11-3 7.9 0 20.6 4.9 20.6 25.2v35h-10.7v-33.8c0-9.5-3.5-17.5-13.6-17.5-6.9 0-12.4 4.9-14.4 10.7-.6 1.5-.7 3-.7 5.1v35.5h-10.7v-86.4zM752.5 434.4V473c0 2.8.1 6.1.3 8.2h-5.2l-.3-5.5h-.1c-1.8 3.6-5.7 6.3-10.9 6.3-7.7 0-13.6-6.5-13.6-16.2-.1-10.6 6.5-17.1 14.3-17.1 4.9 0 8.2 2.3 9.6 4.9h.1v-19h5.8zm-5.8 27.9c0-.7-.1-1.7-.3-2.4-.9-3.7-4-6.7-8.4-6.7-6 0-9.6 5.3-9.6 12.3 0 6.5 3.2 11.8 9.4 11.8 3.9 0 7.4-2.6 8.5-6.9.2-.8.3-1.6.3-2.5v-5.6zm15.4-3c0-3.8-.1-7-.3-9.9h5.1l.2 6.3h.3c1.4-4.3 4.9-7 8.8-7 .7 0 1.1.1 1.6.2v5.5c-.6-.1-1.2-.2-2-.2-4.1 0-7 3.1-7.8 7.4-.1.8-.3 1.7-.3 2.7v17H762v-22zm48.2 13.2c0 3.3.1 6.2.3 8.7h-5.1l-.3-5.2h-.2c-1.5 2.6-4.9 5.9-10.5 5.9-5 0-11-2.8-11-14v-18.6h5.8V467c0 6.1 1.8 10.1 7.1 10.1 3.9 0 6.6-2.7 7.6-5.3.3-.9.5-1.9.5-3v-19.6h5.8v23.3zm37.1-23.2c-.1 2.3-.3 4.9-.3 8.8v18.5c0 7.3-1.4 11.8-4.5 14.6-3.1 2.9-7.6 3.8-11.6 3.8-3.8 0-8-.9-10.6-2.6l1.4-4.4c2.1 1.3 5.4 2.5 9.4 2.5 5.9 0 10.3-3.1 10.3-11.1v-3.6h-.1c-1.8 3-5.2 5.3-10.1 5.3-7.9 0-13.6-6.7-13.6-15.5 0-10.8 7-16.9 14.4-16.9 5.5 0 8.6 2.9 9.9 5.5h.1l.3-4.8h5zm-6 12.6c0-1-.1-1.8-.3-2.6-1.1-3.4-3.9-6.1-8.1-6.1-5.5 0-9.5 4.7-9.5 12.1 0 6.3 3.2 11.5 9.4 11.5 3.6 0 6.8-2.2 8-5.9.3-1 .5-2.1.5-3.1v-5.9zm14.6 13.4c1.7 1.1 4.7 2.3 7.6 2.3 4.2 0 6.2-2.1 6.2-4.7 0-2.8-1.6-4.3-5.9-5.9-5.7-2-8.4-5.2-8.4-9 0-5.1 4.2-9.4 11-9.4 3.2 0 6.1.9 7.8 2l-1.4 4.2c-1.3-.8-3.6-1.8-6.5-1.8-3.4 0-5.3 2-5.3 4.3 0 2.6 1.9 3.8 6.1 5.4 5.5 2.1 8.4 4.9 8.4 9.6 0 5.6-4.3 9.6-11.9 9.6-3.5 0-6.7-.9-9-2.2l1.3-4.4zm33.8-35.1v9.2h8.3v4.4h-8.3V471c0 4 1.1 6.2 4.3 6.2 1.5 0 2.6-.2 3.4-.4l.3 4.3c-1.1.5-2.9.8-5.1.8-2.7 0-4.9-.9-6.3-2.4-1.6-1.7-2.2-4.5-2.2-8.3v-17.4h-4.9v-4.4h4.9v-7.6l5.6-1.6zm43.3 24.8c0 11.8-8.2 16.9-15.9 16.9-8.6 0-15.3-6.3-15.3-16.4 0-10.7 7-16.9 15.8-16.9 9.2 0 15.4 6.7 15.4 16.4zm-25.3.3c0 7 4 12.3 9.7 12.3 5.5 0 9.7-5.2 9.7-12.4 0-5.4-2.7-12.3-9.6-12.3s-9.8 6.4-9.8 12.4zm32.6-6c0-3.8-.1-7-.3-9.9h5.1l.2 6.3h.3c1.4-4.3 4.9-7 8.8-7 .7 0 1.1.1 1.6.2v5.5c-.6-.1-1.2-.2-2-.2-4.1 0-7 3.1-7.8 7.4-.1.8-.3 1.7-.3 2.7v17h-5.7v-22zm24.1 7c.1 7.8 5.1 11.1 10.9 11.1 4.1 0 6.7-.7 8.8-1.6l1 4.2c-2 .9-5.5 2-10.6 2-9.8 0-15.7-6.5-15.7-16.1s5.7-17.2 15-17.2c10.4 0 13.2 9.2 13.2 15 0 1.2-.1 2.1-.2 2.7h-22.4zm17-4.1c.1-3.7-1.5-9.4-8-9.4-5.9 0-8.4 5.4-8.9 9.4h16.9z" fill="#666"/><linearGradient id="a" gradientUnits="userSpaceOnUse" x1="24.222" y1="287.634" x2="758.886" y2="287.634"><stop offset="0" stop-color="#d5e2a6"/><stop offset=".5" stop-color="#b6d27e"/><stop offset="1" stop-color="#8bb64b"/></linearGradient><path fill="url(#a)" d="M745.8 171.6s-123.6-80.1-247.2-22.9c-123.6 57.2-320.4 169.4-444 91.5 0 0 169.4 286.1 519.5 185.4l91.5-91.5 91.5-61.8 32-82.4-43.3-18.3z"/><linearGradient id="b" gradientUnits="userSpaceOnUse" x1="619.946" y1="102.961" x2="757.26" y2="102.961"><stop offset="0" stop-color="#85be8a"/><stop offset=".5" stop-color="#5ca256"/><stop offset="1" stop-color="#518f51"/></linearGradient><path fill="url(#b)" d="M757.3 103c0 37.9-30.7 68.7-68.7 68.7S619.9 141 619.9 103c0-37.9 30.7-68.7 68.7-68.7S757.3 65 757.3 103z"/><linearGradient id="c" gradientUnits="userSpaceOnUse" x1="310.97" y1="290.633" x2="860.255" y2="290.633"><stop offset="0" stop-color="#85be8a"/><stop offset=".5" stop-color="#5ca256"/><stop offset="1" stop-color="#518f51"/></linearGradient><path fill="url(#c)" d="M860.3 34.3s-38.9 103-114.4 137.3c0 0 11.4 50.4-27.5 91.5 0 0-103-137.3-290.7 36.6 0 0 155.6-64.1 151 22.9-4.6 87-169.4 210.6-267.8 224.3.1.1 478.4.1 549.4-512.6z"/></svg>