<svg xmlns="http://www.w3.org/2000/svg" viewBox="28.6 0 580.5 700"><path d="M71.1 641c7.2 0 12.7-2 16.6-6 3.9-4 5.9-9.4 5.9-16.1 0-3.6-.6-6.8-1.8-9.6s-2.8-5.3-4.7-7.6c-1.9-2.3-4.2-4.3-6.7-6.2-2.5-1.9-5.1-3.7-7.8-5.6-3.1-2.1-6.2-4.4-9.6-6.8-3.3-2.4-6.3-5.2-9.1-8.4-2.7-3.2-4.9-6.9-6.7-11.2-1.7-4.2-2.6-9.2-2.6-14.9 0-5.6 1-10.6 2.9-15.1s4.6-8.4 8-11.5c3.4-3.2 7.4-5.6 12.1-7.4 4.7-1.7 9.8-2.6 15.2-2.6 5.3 0 10.2.7 14.7 2s8.3 2.9 11.4 4.8l-5.6 14.1c-2.8-1.9-5.8-3.3-9.1-4.3s-6.7-1.5-10.3-1.5c-6.5 0-11.7 1.8-15.6 5.3-3.9 3.5-5.9 8.7-5.9 15.4 0 3.7.6 7 1.9 9.8 1.3 2.8 2.9 5.3 5 7.6s4.4 4.3 7.2 6.2c2.7 1.9 5.6 3.8 8.7 5.8 3.1 2 6.2 4.2 9.4 6.6 3.2 2.4 6.1 5.1 8.7 8.3 2.6 3.1 4.7 6.8 6.4 11 1.7 4.2 2.5 9.1 2.5 14.8 0 5.2-.8 10.1-2.4 14.7-1.6 4.6-4.1 8.7-7.5 12.2-3.4 3.5-7.6 6.3-12.7 8.4-5.1 2.1-11.1 3.1-18 3.1-6.4 0-11.9-.7-16.7-2.2-4.8-1.5-9-3.4-12.7-5.8l5.6-14.3c3.5 2.1 7 3.8 10.7 5.1 3.6 1.3 7.8 1.9 12.6 1.9zm66.9-90c3.5-1.5 7.1-2.6 11-3.5 3.8-.9 8-1.3 12.5-1.3 9.3 0 16.9 2.9 22.7 8.7 5.8 5.8 8.8 14.8 8.8 27v69.3c-4.8 1.3-9.7 2.4-14.6 3.2-5 .8-9.9 1.2-14.6 1.2s-9.3-.6-13.4-1.8c-4.2-1.2-7.8-3.1-11-5.8-3.1-2.7-5.6-6-7.5-10.1-1.9-4-2.8-9-2.8-14.8 0-5.4.8-10.2 2.5-14.2s3.9-7.4 6.9-10.2c2.9-2.7 6.4-4.8 10.4-6.2s8.3-2.1 12.9-2.1c4.4 0 9.2.5 14.5 1.6v-9.6c0-7.7-1.5-13.1-4.5-16.1-3-3.1-7.3-4.6-12.8-4.6-3.1 0-5.9.3-8.7.9-2.7.6-5.6 1.6-8.7 2.9L138 551zm8.1 71.9c0 6.1 1.6 10.6 4.8 13.5 3.2 2.9 7.7 4.4 13.5 4.4 3.6 0 7.5-.5 11.7-1.4v-33.3c-4-1.1-7.9-1.6-11.7-1.6-2.5 0-4.9.3-7.2.9-2.3.6-4.2 1.6-5.9 3-1.7 1.4-3 3.3-3.9 5.6-.8 2.3-1.3 5.3-1.3 8.9zM268 564.3c-4.3-1.9-9-2.8-14.3-2.8-4.9 0-9.5.9-13.7 2.6v89.2h-17.1v-100c3.8-1.9 8.3-3.4 13.2-4.7 5-1.3 10.5-1.9 16.4-1.9 3.2 0 6.4.2 9.6.6 3.2.4 6.2 1.1 9 2.2l-3.1 14.8zm29.9 41.8c.1 5 .6 9.7 1.4 13.8.8 4.2 2.1 7.8 3.9 11 1.8 3.1 4.2 5.5 7.2 7.3 3 1.7 6.8 2.6 11.5 2.6 3.8 0 7.4-.6 10.7-1.7 3.3-1.1 5.6-2.1 7.1-2.9l3.2 13.7c-1.7 1.2-4.6 2.5-8.7 3.9s-8.9 2.1-14.4 2.1c-7.3 0-13.4-1.3-18.4-4-5-2.7-9-6.4-12.1-11.2-3.1-4.8-5.3-10.5-6.7-17.1-1.3-6.6-2-13.9-2-21.9 0-19.2 3.2-33.3 9.6-42.2 6.4-8.9 14.8-13.3 25.3-13.3 11.8 0 20.2 4.5 25.1 13.3 4.9 8.9 7.4 21.4 7.4 37.4v4.5c0 1.5-.1 3.1-.2 4.7h-49.9zm17.3-45.4c-5.7 0-9.9 2.9-12.4 8.6-2.6 5.7-4.2 13.3-4.7 22.9h31.7c0-9.7-1-17.4-3-23-2-5.6-5.9-8.5-11.6-8.5zm74.7 129.5h-17.1V551.6c3.7-1.6 7.9-2.9 12.6-3.9 4.7-1 9.5-1.5 14.4-1.5 7.3 0 13.6 1.3 18.8 3.8 5.2 2.5 9.5 6.1 12.7 10.9 3.3 4.7 5.6 10.5 7.2 17.3 1.5 6.8 2.3 14.6 2.3 23.4 0 17.7-2.8 31.1-8.5 40.4-5.6 9.3-14.8 13.9-27.6 13.9-3.1 0-5.8-.3-8.2-.9-2.4-.6-4.6-1.4-6.8-2.5v37.7zm0-52.6c3.8 2.1 8 3.2 12.3 3.2 3.3 0 6.2-.7 8.8-2 2.5-1.3 4.7-3.5 6.5-6.6 1.8-3.1 3.2-7.1 4.1-12.1.9-5 1.4-11.3 1.4-18.7 0-14.3-1.8-24.6-5.5-30.8-3.7-6.2-9.5-9.3-17.4-9.3-1.5 0-3.1.1-4.8.3-1.7.2-3.5.6-5.4 1.1v74.9zm92-88.8h26.3v14.7h-26.3v57.6c0 7.2 1.3 12.2 3.9 15 2.6 2.9 6.1 4.3 10.5 4.3 2.3 0 4.4-.3 6.5-1 2.1-.7 3.8-1.5 5.3-2.4l3.4 13.7c-5.4 3.2-11.2 4.8-17.3 4.8-9.8 0-17.2-2.8-22-8.3-4.8-5.5-7.3-14.6-7.3-27.4v-99.2l17.1-3v31.2zm49.6 2.2c3.5-1.5 7.1-2.6 11-3.5 3.8-.9 8-1.3 12.5-1.3 9.3 0 16.9 2.9 22.7 8.7 5.8 5.8 8.8 14.8 8.8 27v69.3c-4.8 1.3-9.7 2.4-14.6 3.2-5 .8-9.9 1.2-14.6 1.2s-9.3-.6-13.4-1.8c-4.2-1.2-7.8-3.1-11-5.8-3.1-2.7-5.6-6-7.5-10.1-1.9-4-2.8-9-2.8-14.8 0-5.4.8-10.2 2.5-14.2s3.9-7.4 6.9-10.2c2.9-2.7 6.4-4.8 10.4-6.2s8.3-2.1 12.9-2.1c4.4 0 9.2.5 14.5 1.6v-9.6c0-7.7-1.5-13.1-4.5-16.1-3-3.1-7.3-4.6-12.8-4.6-3.1 0-5.9.3-8.7.9-2.7.6-5.6 1.6-8.7 2.9l-3.6-14.5zm8.1 71.9c0 6.1 1.6 10.6 4.8 13.5 3.2 2.9 7.7 4.4 13.5 4.4 3.6 0 7.5-.5 11.7-1.4v-33.3c-4-1.1-7.9-1.6-11.7-1.6-2.5 0-4.9.3-7.2.9-2.3.6-4.2 1.6-5.9 3-1.7 1.4-3 3.3-3.9 5.6-.8 2.3-1.3 5.3-1.3 8.9z"/><linearGradient id="a" gradientUnits="userSpaceOnUse" x1="208.652" y1="52.284" x2="483.44" y2="52.284"><stop offset="0" stop-color="#9dced7"/><stop offset=".332" stop-color="#8bbfc9"/><stop offset=".992" stop-color="#5e9aa4"/><stop offset="1" stop-color="#5d99a3"/></linearGradient><path fill="url(#a)" d="M479.4 93.2c-41.1-53-105.3-87.1-177.5-87.1-33.3 0-64.8 7.3-93.3 20.3 4.6-.3 9.3-.5 14-.5 59.8 0 114.1 23.4 154.4 61.6 10-1.4 20.2-2.1 30.6-2.1 25.2 0 49.5 4.2 72.1 11.9 1.2.4 2.5.8 3.7 1.3-1.3-1.9-2.6-3.7-4-5.4z"/><linearGradient id="b" gradientUnits="userSpaceOnUse" x1="315.921" y1="270.018" x2="526.475" y2="270.018"><stop offset="0" stop-color="#9dced7"/><stop offset=".332" stop-color="#8bbfc9"/><stop offset=".992" stop-color="#5e9aa4"/><stop offset="1" stop-color="#5d99a3"/></linearGradient><path fill="url(#b)" d="M483.4 98.5c-1.2-.4-2.5-.8-3.7-1.3-22.7-7.7-46.9-11.9-72.1-11.9-10.4 0-20.6.8-30.6 2.1 38.7 36.6 64.3 86.8 69.2 143 .6 6.6.9 13.3.9 20 0 90.7-53.8 168.8-131.3 204.3 117.5-7.2 210.6-104.8 210.6-224.1.1-49.4-15.9-95-43-132.1z"/><linearGradient id="c" gradientUnits="userSpaceOnUse" x1="78.185" y1="345.621" x2="226.071" y2="345.621"><stop offset="0" stop-color="#9dced7"/><stop offset=".332" stop-color="#8bbfc9"/><stop offset=".992" stop-color="#5e9aa4"/><stop offset="1" stop-color="#5d99a3"/></linearGradient><path fill="url(#c)" d="M78.2 249.2C85.5 338.5 145 412.9 226.1 442c-24.4-33.4-39.7-73.8-42.5-117.6-42.2-14.3-78.7-40.7-105.4-75.2z"/><linearGradient id="d" gradientUnits="userSpaceOnUse" x1="183.55" y1="342.818" x2="447.216" y2="342.818"><stop offset="0" stop-color="#9dced7"/><stop offset=".332" stop-color="#8bbfc9"/><stop offset=".992" stop-color="#5e9aa4"/><stop offset="1" stop-color="#5d99a3"/></linearGradient><path fill="url(#d)" d="M447.2 250.4c0-6.7-.3-13.4-.9-20-39.7 63.6-110.2 105.9-190.6 105.9-25.2 0-49.5-4.2-72.1-11.9 2.8 43.8 18.2 84.2 42.5 117.6 23.7 8.5 49.2 13.2 75.8 13.2 4.7 0 9.4-.2 14-.5 77.5-35.4 131.3-113.5 131.3-204.3z"/><linearGradient id="e" gradientUnits="userSpaceOnUse" x1="77.361" y1="175.143" x2="377.03" y2="175.143"><stop offset="0" stop-color="#9dced7"/><stop offset=".332" stop-color="#8bbfc9"/><stop offset=".992" stop-color="#5e9aa4"/><stop offset="1" stop-color="#5d99a3"/></linearGradient><path fill="url(#e)" d="M183.6 324.4c-.3-4.8-.5-9.6-.5-14.5 0-113.7 84.4-207.5 194-222.4-40.2-38.1-94.6-61.6-154.4-61.6-4.7 0-9.4.2-14 .5C131.2 61.8 77.4 139.9 77.4 230.6c0 6.3.3 12.5.8 18.6 26.7 34.5 63.2 60.9 105.4 75.2z"/></svg>