<svg xmlns="http://www.w3.org/2000/svg" viewBox="0 0 1400 700"><text transform="translate(705.084 533.109)" font-family="'m_Brody'" font-size="268.829">аптека</text><text transform="translate(694.916 339.154)" font-family="'m_Brody'" font-size="351.798">Ваша</text><linearGradient id="a" gradientUnits="userSpaceOnUse" x1="54.957" y1="243.175" x2="313.053" y2="243.175"><stop offset="0" stop-color="#73c2f0"/><stop offset=".5" stop-color="#61abea"/><stop offset="1" stop-color="#5393d6"/></linearGradient><path fill="url(#a)" d="M313.1 320.5S224.6 60.7 127.9 151.9s-97.6 206 0 201.8c96.7-4.1 185.2-33.2 185.2-33.2z"/><linearGradient id="b" gradientUnits="userSpaceOnUse" x1="473.192" y1="215.455" x2="504.336" y2="452.149"><stop offset="0" stop-color="#73c2f0"/><stop offset=".5" stop-color="#61abea"/><stop offset="1" stop-color="#5393d6"/></linearGradient><path fill="url(#b)" d="M365 351.8s77.4 263.4 177.9 176.3c100.5-87 106.3-201.6 8.6-201.6-96.9 0-186.5 25.3-186.5 25.3z"/><linearGradient id="c" gradientUnits="userSpaceOnUse" x1="302.234" y1="177.976" x2="528.329" y2="177.976"><stop offset="0" stop-color="#85be8a"/><stop offset=".5" stop-color="#5ca256"/><stop offset="1" stop-color="#518f51"/></linearGradient><path fill="url(#c)" d="M356.6 308.3s248.7-116.1 147.6-202.4C403 19.6 288.8 31.1 303.5 127.8c14.6 95.7 53.1 180.5 53.1 180.5z"/><linearGradient id="d" gradientUnits="userSpaceOnUse" x1="141.521" y1="482.063" x2="365.858" y2="482.063"><stop offset="0" stop-color="#85be8a"/><stop offset=".5" stop-color="#5ca256"/><stop offset="1" stop-color="#518f51"/></linearGradient><path fill="url(#d)" d="M319.8 352.1S66.4 457.5 163.8 548s212 83.8 201.4-13.3c-10.6-96.2-45.4-182.6-45.4-182.6z"/></svg>