<?xml version="1.0" encoding="utf-8"?>
<!-- Generator: Adobe Illustrator 17.1.0, SVG Export Plug-In . SVG Version: 6.00 Build 0)  -->
<!DOCTYPE svg PUBLIC "-//W3C//DTD SVG 1.1//EN" "http://www.w3.org/Graphics/SVG/1.1/DTD/svg11.dtd">
<svg version="1.1" xmlns="http://www.w3.org/2000/svg" xmlns:xlink="http://www.w3.org/1999/xlink" x="0px" y="0px"
	 viewBox="0 0 1374.6 601.7" enable-background="new 0 0 1374.6 601.7" xml:space="preserve">
<g id="Layer_1" display="none">
	
		<image display="inline" overflow="visible" width="210" height="102" xlink:href="logo.jpg"  transform="matrix(5.902 0 0 5.902 70.2941 -8.898)">
	</image>
</g>
<g id="Layer_2">
	<polygon fill="#4682B4" points="0,0 1374.5,0 1376,161.7 1335.3,161.7 1335.1,42.3 39.7,41.6 40.4,161.7 0,161.7 	"/>
	<polygon fill="#4682B4" points="0,601.7 1374.6,601.7 1376,440 1335.3,440 1335.2,559.3 39.7,560.1 40.4,440 0,440 	"/>
	<g>
		<path stroke="#000000" stroke-width="6" stroke-miterlimit="10" d="M187.4,182l-27.8,53.1l-0.8,1.4h1.6
			c8.7-3.8,20.4-12.6,35.1-26.4c17.2-16.2,30.9-27.6,41.1-34.3l15.5-10.1c6.5-4,11.9-6.7,16.1-8.2c1.1-0.4,1.7-0.2,1.9,0.5l-0.3,1.4
			c-2.9,1.5-9.2,6.2-18.8,14.2c-9.6,8-22.7,19.3-39.2,33.8c-3.4,3.1-6.9,6.1-10.3,9c-2.4,2-4.7,3.8-7.1,5.5
			c-10.5,7.5-23.4,14.4-38.7,20.7c12.2,3.3,19.4,8.5,21.8,15.8c1.1,3.1,1.6,5.7,1.6,7.9c0,3.5-3.8,14.1-11.4,31.9l-3.3,8.2
			c0,1.6,0.8,2.5,2.5,2.5c4,0,9.2-2.8,15.5-8.5c5.1-4.6,9.2-9.1,12.3-13.5c0.9-0.9,1.7-1,2.5-0.3c1.1,0.7,1.4,1.5,0.8,2.2
			c-2.9,4.9-8.2,10.7-15.8,17.3c-8.5,6.6-15.3,9.9-20.4,9.9c-8.4,0-12.5-5.5-12.5-16.4c0-5.8,1.4-12.8,4.1-20.8
			c5.4-15.7,8.2-24,8.2-24.9c0-4.2-2.6-6.6-7.9-7.1c-3.3,4.9-6.9,10-10.9,15.4c-4,5.4-7.3,9.7-9.8,12.9c-6.2,7.8-15.2,15.8-27.2,24
			C89,310.4,73.2,316,58.3,316c-5.6,0-10.8-1.1-15.5-3.3c-10.9-5.3-16.3-13.6-16.3-25c0-6.7,2.2-13.5,6.5-20.4
			c-12.7-4.2-20.5-11.2-23.4-21c-0.7-2.2-1.1-4.7-1.1-7.6c0-12.3,5.4-23.9,16.3-34.6c6.5-16,17-29.1,31.3-39.5
			c7.8-5.6,15.6-9.9,23.3-12.8c7.7-2.9,15.7-4.4,24.1-4.4c14,0,24.5,2.1,31.7,6.2c7.2,4.1,11.4,11,12.7,20.5c4.7,0,9.9,0.1,15.7,0.4
			c5.7,0.3,8.9,0.4,9.7,0.4c1.8,0,6.7-1.3,14.7-3.8l2.2-0.5c1.1,0,1.6,0.7,1.6,2.2c0,0.5-0.5,1.9-1.6,3.9
			C189,178.8,188.1,180.6,187.4,182z M24.6,218.8c-0.2,1.3-0.7,1.8-1.6,1.6c-0.5-1.3-0.8-2.3-0.8-3c0-2.2,0.4-4.3,1.1-6.3
			c-7.1,7.5-10.6,17.1-10.6,28.8c0,5.3,1.1,9.4,3.3,12.1c4.7,6.2,11.3,10.3,19.6,12.1c3.1-3.4,8.3-7.3,15.8-11.7h1.4
			c1.1,0,1.8,0.5,2.2,1.4c0.4,1.1,0,1.8-1.1,2.2c-2.5,1.1-7,4-13.3,8.7l7.1,0.3c16.9,0,32.8-4.6,47.6-13.8
			c14.9-9.2,27-21.1,36.5-35.6c8.3-13.1,12.5-24.6,12.5-34.4l-25-0.8c-41.7,0-71.7,8.3-89.8,25C28.1,206.9,26.6,211.3,24.6,218.8z
			 M147.9,181.2c0,15.6-8,32.5-24,50.6c-21.6,24.5-47.2,36.8-76.8,36.8h-9.8c-4.5,6.1-6.8,12.6-6.8,19.6c0,5.4,1.3,9.8,3.8,13.2
			c4.9,7,12.6,10.5,23.1,10.5c10.7,0,20.7-4.4,29.9-13.1c7.8-7.3,16.3-18.5,25.6-33.8c6.4-10.9,17.1-27.4,32.1-49.5
			c12.7-17.2,24.6-29.9,35.7-37.8L147.9,181.2z M102,151c-6.5,0-12.9,1.3-19.3,3.8c-6.3,2.5-13.3,6.4-20.9,11.4
			c-12.3,8.7-22.4,19.2-30.1,31.6c22.5-16.7,50.6-25,84.5-25c2.5,0,7.4,0.2,14.5,0.7c7.2,0.5,11.5,0.7,13.2,0.7
			c-2.4-15.4-13.7-23.1-33.9-23.1H102z"/>
		<path stroke="#000000" stroke-width="6" stroke-miterlimit="10" d="M241,250.1c-23.2,28-34.8,45.2-34.8,51.7
			c0,2.7,1.3,4.1,3.8,4.1c6.4,0,17.5-11.3,33.5-33.8l16.3-22.1h21.8L254.3,286c-5.8,8-8.7,13.2-8.7,15.5c0,3.1,1.5,4.6,4.6,4.6
			c10.2,0,27-14.8,50.6-44.4l5.4-0.8c-10.2,13.4-20.4,24.8-30.8,34c-12.9,11.3-23.4,16.9-31.6,16.9c-7.3,0-10.9-4.9-10.9-14.7
			l0.8-6.5l-16.1,15c-5.6,4.2-10.3,6.3-14.2,6.3c-6.7,0-10.1-4.3-10.1-12.8c0-11.1,9-27.4,27-49H241z"/>
		<path stroke="#000000" stroke-width="6" stroke-miterlimit="10" d="M289.5,303.7l-51.2,78.7h-19.9l87.7-132.3h18.5l-3.3,5.4
			c6.9-5.4,12.9-8.2,18-8.2c8.2,0,12.3,5.3,12.3,15.8c0,12.2-5.8,23.4-17.4,33.8c-2.9,2.5-5.7,4.8-8.4,6.8
			c14.2-7.8,28.7-19.6,43.6-35.4l5.7-1.1c-25.6,28.3-46.9,42.9-64,43.8l3-1.4c-4.9,1.5-10,2.2-15.2,2.2
			C293.4,311.9,290.4,309.2,289.5,303.7z M327.3,254.5c-5.8,5.1-12.3,12.3-19.3,21.5c-9.3,11.8-13.9,19.8-13.9,24
			c-0.4,2.5-0.1,4.2,0.8,5c0.9,0.8,2,1.2,3.3,1.2c1.6,0,3-0.5,4.1-1.4c7.3-3.6,15-10.3,23.1-20.1c8.9-10.5,13.3-19.5,13.3-27
			c0-4.2-1.3-6.3-3.8-6.3C332.4,251.5,329.8,252.5,327.3,254.5z"/>
		<path stroke="#000000" stroke-width="6" stroke-miterlimit="10" d="M379.6,306.7c5.1,0,11.6-2.8,19.6-8.4
			c11.8-8,24.2-20.2,37.3-36.8l5.4-0.5c-26.9,33.9-49.2,50.9-67,50.9c-10.3,0-15.5-6.1-15.5-18.2c0-8.7,3.3-17.2,9.8-25.3
			c5.4-7.1,12.7-12.7,21.8-16.9c5.8-2.9,10.9-4.4,15.2-4.4c1.5,0,3.6,0.2,6.5,0.5c2.9,0.4,4.9,2.6,6,6.8c0.5,1.6,0.8,3.1,0.8,4.4
			c0,7.8-7,14.2-21,19.1c-1.5,0.5-4.3,1.2-8.4,2c-4.2,0.8-7,1.3-8.4,1.5c-5.6,7.8-8.4,14.4-8.4,19.9
			C373.3,304.9,375.4,306.7,379.6,306.7z M383.6,277.3c3.4,0.7,9.2-1.4,17.2-6.3c8-4.9,12-10.2,12-15.8c0-1.3-0.5-2.1-1.6-2.5
			c-4.9-0.9-10.6,2.4-17.2,9.8C389.5,268.1,386,273,383.6,277.3z"/>
		<path stroke="#000000" stroke-width="6" stroke-miterlimit="10" d="M474.8,256.9c0-2-1.3-3-3.8-3c-6.5,0-14.6,6.5-24.2,19.6
			c-1.6,2.4-3.1,4.5-4.4,6.5c-0.4,0.7-1.8,3.4-4.4,8.2c-3.4,6.9-4.9,12.1-4.4,15.5c0.4,2.2,2.2,3.3,5.4,3.3c4.4,0,11.3-3.4,21-10.3
			c8.5-6,20.4-17.9,35.7-35.7l5.7-0.8c-31,36.5-54.4,53.6-70,51.5c-8.2-1.5-12.3-7.1-12.3-16.9c0-8.7,2.7-17,8-24.9
			c5.4-7.9,12.2-13.8,20.6-17.8c3.1-1.6,6.3-2.8,9.7-3.5c3.4-0.7,6.5-1.1,9.4-1.1c5.4,0,9.4,2.2,12,6.5c0.7,1.5,1.1,3.1,1.1,4.9
			c0,2-0.7,4.6-2.2,7.9c-3.3,5.3-7.1,7.9-11.4,7.9c-2.7,0-4.5-0.9-5.4-2.6c-0.9-1.7-1.4-3-1.4-3.9c0-1.1,0.5-2.4,1.4-3.8
			C463.5,259.4,468.1,256.9,474.8,256.9z"/>
		<path stroke="#000000" stroke-width="6" stroke-miterlimit="10" d="M572,171.7L514,259.8c11.3-8.3,19.7-12.5,25.4-12.5
			c2.9,0,5.5,1.1,7.6,3.3s3.3,4.8,3.3,7.9c0,4.7-4.7,13-14,24.9c-9.3,11.9-14,18.8-14,20.8c0,1.5,0.7,2.4,2.2,2.7
			c3.3,0.9,9.6-2.3,19.1-9.7c12.3-9.6,24-21.9,35.1-36.9h5.4c-3.4,4.9-7.7,10.2-12.8,15.9c-5.1,5.7-10.3,11-15.5,16.2
			c-15.1,14.1-26.6,20.5-34.6,19.4c-6.4-1.1-9.5-5.2-9.5-12.3c0-6.6,2.8-13.6,8.4-21.1c1.6-2.2,3.8-4.9,6.4-8.1
			c2.6-3.2,5-6.1,7.2-8.6c2.9-3.5,4.4-6.1,4.4-7.9c0-1.8-1.1-2.5-3.3-2.2c-13.8,1.8-31.5,21.4-53.1,58.8h-21l91.5-138.8L572,171.7z"
			/>
		<path stroke="#000000" stroke-width="6" stroke-miterlimit="10" d="M580.5,306.7c5.1,0,11.6-2.8,19.6-8.4
			c11.8-8,24.2-20.2,37.3-36.8l5.4-0.5c-26.9,33.9-49.2,50.9-67,50.9c-10.3,0-15.5-6.1-15.5-18.2c0-8.7,3.3-17.2,9.8-25.3
			c5.4-7.1,12.7-12.7,21.8-16.9c5.8-2.9,10.9-4.4,15.2-4.4c1.5,0,3.6,0.2,6.5,0.5c2.9,0.4,4.9,2.6,6,6.8c0.5,1.6,0.8,3.1,0.8,4.4
			c0,7.8-7,14.2-21,19.1c-1.5,0.5-4.3,1.2-8.4,2c-4.2,0.8-7,1.3-8.4,1.5c-5.6,7.8-8.4,14.4-8.4,19.9
			C574.2,304.9,576.3,306.7,580.5,306.7z M584.6,277.3c3.4,0.7,9.2-1.4,17.2-6.3c8-4.9,12-10.2,12-15.8c0-1.3-0.5-2.1-1.6-2.5
			c-4.9-0.9-10.6,2.4-17.2,9.8C590.4,268.1,586.9,273,584.6,277.3z"/>
		<path stroke="#000000" stroke-width="6" stroke-miterlimit="10" d="M660.4,242.7c0,2.7-1.7,5.5-5.1,8.4c5.1,6.2,7.6,13.7,7.6,22.6
			c0,7.1-3.7,15.4-11.2,25c6-2.5,14.3-8.8,25-18.8c9.1-8.5,16.3-16.2,21.8-22.9l5.2-1.1c-15.8,19.1-30.5,33.1-44.1,42.2
			c-13.6,9.1-26.2,13.6-37.8,13.6c-5.4,0-9.3-2.2-11.7-6.5c-0.5-1.5-0.8-2.9-0.8-4.4c0-2.9,1.1-5.6,3.3-8.2c2.2-2.5,4.8-3.8,7.9-3.8
			c2.9-0.2,5.1,0.5,6.5,1.9c1.3,2.4,1.5,4.3,0.8,5.7c-1.3,4-5.7,6.4-13.3,7.4l1.6,2.7h2.7c4.9,0,10.2-3.6,15.8-10.9
			c4.9-6,8.3-11.9,10.1-17.7c2.2-5.3,3.3-10,3.3-14.2l-0.8-6.3l-4.1,1.9l-1.4-1.9c-0.2-0.9,0.7-2.5,2.5-4.9l3.8-5.2
			c2.5-4.5,4.7-7.1,6.8-7.6C657.8,239.1,659.7,240,660.4,242.7z"/>
		<path stroke="#000000" stroke-width="6" stroke-miterlimit="10" d="M774.1,171.8l-66.9,101.6l17.6-14.2c9.2-7.1,15-10.8,17.4-11.2
			c2.4-0.4,4.3-0.5,5.7-0.5c2.7,0,4.5,0.7,5.4,2c0.9,1.4,1.4,2.8,1.4,4.2c0,1.3-0.5,2.8-1.4,4.6c-0.9,1.8-2.8,3.7-5.6,5.6
			c-2.8,1.9-5.5,2.9-8,2.9c-0.5,0-1.4-0.2-2.4-0.5c-3.1-1.5-4.4-3.9-3.8-7.4c-3.6,0.7-9.6,5.3-18,13.6c6.2,2.7,9.3,6.3,9.3,10.6
			c0.2,2-1,5.5-3.7,10.6c-2.6,5.1-3.8,8.3-3.4,9.8c0.4,1.1,1,1.6,1.9,1.6c0.4,0,1.5-0.4,3.3-1.1c10.2-4.7,26.7-19.1,49.5-43.3
			l5.2-0.5c-11.1,12.9-22.9,24.5-35.4,34.8c-15.4,12.5-26.3,18.1-32.7,16.6c-4.9-1.3-7.4-3.9-7.4-7.9c0-2.4,0.2-4.1,0.5-5.3
			c0.4-1.2,1.4-3.5,3-6.9l2.7-7.1c1.1-2.2,1.6-4,1.6-5.4l-0.8-1.1l-1.6,0.5l-5.5,3.3c-1.3,0.7-2,1.2-2.2,1.4
			c-1.3,1.1-2.6,2.6-3.8,4.6l-16.1,24.2l-20.9,0L752,171.7L774.1,171.8z"/>
		<path stroke="#000000" stroke-width="6" stroke-miterlimit="10" d="M798.5,250.1c-18.1,22.9-28.9,38.1-32.4,45.7
			c-1.8,3.1-2.7,5.5-2.7,7.4c0,1.6,0.8,2.6,2.4,3c5.1,1.1,14.3-4.9,27.8-18c9.3-9.1,17.4-18.1,24.5-27l5.2-0.5
			c-27,34.1-47.7,51.2-62.1,51.2c-6.9,0-10.3-3.7-10.3-11.2c0-8,3.4-16.7,10.1-26.1l17.2-24.5H798.5z M799.1,219.3
			c1.5-0.4,2.4-0.5,2.7-0.5c2.4,0,4.4,1,6.1,2.9c1.7,1.9,2.6,4.2,2.6,6.9c0,3.1-1.2,5.7-3.5,7.9c-2.4,2.2-5.1,3.3-8.2,3.3
			c-1.1,0-2.4-0.3-3.8-0.8c-2.9-1.3-4.6-3.6-5.2-7.1C788.7,225.3,791.8,221.1,799.1,219.3z"/>
		<path stroke="#000000" stroke-width="6" stroke-miterlimit="10" d="M845.4,250.1l-29.9,43c-2.7,3.8-4.1,6.6-4.1,8.4
			c0,1.6,0.8,2.4,2.4,2.4c2.9,0,8.9-4.6,18-13.9c4.9-5.1,9.2-10.2,13.1-15.2l19.3-24.8l18,0l-32.9,49c7.4-2.8,23.8-15.6,49-38.4h4.6
			c-3.3,3.4-6.9,7-10.9,10.6c-4,3.6-8.6,7.5-13.9,11.7c-6.2,4.9-12,9.2-17.4,12.8c-5.4,3.6-10.2,6.3-14.2,8.2l-17.9,26.2
			c-8,11.7-16.8,22.6-26.4,32.8c-14.3,14.9-25.8,22-34.3,21.1c-3.4,0-5.6-1.9-6.5-5.7c-0.2-0.7-0.3-1.8-0.3-3.3
			c0-9.5,7.8-21.7,23.4-36.6c14.3-13.8,27.4-23.6,39.2-29.2l12.8-19.1c-6.9,7.1-12,11.9-15.2,14.4c-6.2,5.1-11.3,7.2-15.2,6.3
			c-4.9-1.5-7.4-4.9-7.4-10.3c0-10.9,9.3-27.7,27.8-50.4L845.4,250.1z M779.2,348.8c-8.5,9.7-13.5,18-15,25.1c0,4.6,1,6.9,3,7.1
			c6,0.9,23.9-21.4,53.6-67C808.1,320.6,794.3,332.2,779.2,348.8z"/>
		<path stroke="#000000" stroke-width="6" stroke-miterlimit="10" d="M1161.1,161.6c0.4,0.7-0.7,1.8-3.3,3.3l-12.8,8.7
			c14.7,13.4,22.1,30.7,22.1,51.7c0,6.5-0.8,12.5-2.4,18c-10.7,37.8-36.1,61.6-76.2,71.6c-7.3,1.8-14.9,2.7-22.9,2.7
			c-4.5,0-9.2-0.3-13.9-0.8l-23.4-4.9l-12.7,1.4l-5.1,1.4c-3.1,0.7-8.8,1.1-17.1,1.1c-10.1,0-16.2-1.3-18.1-4l-1.1-2.9
			c0-3.9,5.8-6.4,17.4-7.5c2,0,3.9,0,5.9,0s3.8,0,5.6,0c2.7,0,4.6,0,5.7,0l22.6,3c6.9-3.6,12.6-7.8,17.2-12.5
			c7.6-8,14.7-19.9,21.4-35.8c6.6-15.9,15.2-31.4,25.7-46.7c12.7-18.3,25.2-30.9,37.6-37.8c-6.2-3.4-13-6-20.6-7.6
			c-7.5-1.6-15.7-2.5-24.4-2.5c3.3,6.4,4.9,14.1,4.9,23.1c0,31.8-16.3,57.9-49,78.4c-14.5,9.1-27.6,13.6-39.2,13.6
			c-12.9,0-21.9-5.3-27-15.8c-1.8-3.4-2.7-7.8-2.7-13.1c0-9.4,2.4-18.7,7.1-27.8c9.6-18,23-32.7,40-44.1c17.8-12,36.5-18,56.1-18
			c-9.1-4.9-20.8-7.4-35.1-7.4c-12.2,0-22.8,1.6-31.9,4.9c-13.6,5.3-25.7,13.6-36.3,24.9c-10.6,11.3-17.5,23.9-20.6,37.7l-0.8,8.2
			c0,11.4,3,20.4,9,27l0.3,1.6c0,1.1-0.7,1.6-2.2,1.6l-1.9-0.8c-6.5-8.7-9.8-18.1-9.8-28c0-11.6,3.8-23.4,11.4-35.4
			c2.9-4.9,6.5-9.7,10.9-14.4c4.4-4.7,9.3-9.1,14.7-13.1c16.7-12.3,35.9-18.5,57.7-18.5c15.6,0,29.6,3.9,41.9,11.7
			c19.2,0,36.6,3.9,52,11.7l17.4-7.9c2.5-0.7,4-1.1,4.4-1.1C1160.6,160.5,1161.1,160.9,1161.1,161.6z M978.5,307.1
			c-0.2,0.8-0.3,1.3-0.3,1.7c0.5,2.3,5.6,3.4,15.2,3.4c10.2,0,18.8-1.1,25.9-3.4c-3.6-2.6-11.7-4-24.2-4
			C986,304.8,980.5,305.6,978.5,307.1z M1026.1,178.5c-11.3,7.1-21.2,16.5-29.9,28.2c-5.1,6.7-9,13.3-11.7,19.7s-4.1,12.4-4.1,18.1
			c0,8.7,1.9,15.4,5.7,20.2c3.8,4.8,9.7,7.2,17.7,7.2c1.8,0,3.7,0,5.7,0c2.4-0.5,4.1-0.9,5.2-1.1c11.8-2.5,24.4-9.1,37.8-19.6
			c13.4-10.5,22.8-21,28-31.5c5.3-10.5,7.9-22.7,7.9-36.7c0-10.3-2.2-17.6-6.5-21.7C1063,161.3,1044.4,167,1026.1,178.5z
			 M1119.8,206.3l-12.8,27.5c-15.1,32.3-37.3,56.8-66.7,73.3c5.3,3.3,12.7,5,22.3,5c6,0,10.9-0.6,14.7-1.9
			c18.9-5.6,36.1-19.3,51.7-41c15.6-21.7,23.4-42.6,23.4-62.9c0-12-4.1-21.8-12.3-29.2C1132.4,184.2,1125.6,193.9,1119.8,206.3z"/>
		<path stroke="#000000" stroke-width="6" stroke-miterlimit="10" d="M1223.5,273.2c0.7,0.2,1.9,0.3,3.5,0.3c7.6,0,14.6-4.3,21-12.8
			l2.7,1.6c-7.3,9.8-15.3,14.7-24,14.7h-3.7c-3.7,8.5-9.3,15.9-16.8,22.4c-9,8.3-18.1,12.4-27.5,12.4c-10.1,0-15.1-5.6-15.1-16.9
			c0-7.4,2.4-15.1,7.1-22.9c4.7-7.3,10.3-13,16.9-17.2c7.3-5.1,14.5-7.6,21.8-7.6c4.9,0,8.1,1.8,9.5,5.4c0.7,0.4,2.5,1.6,5.4,3.8
			c1.3,1.5,1.9,3.4,1.9,6C1226.2,265.9,1225.3,269.4,1223.5,273.2z M1181,305.6c0.7,1.1,2.7,1.5,6,1.1c6.4-2,12.7-6.1,18.9-12.5
			c5.5-5.4,10-11.5,13.4-18.4c-5.1-2.6-7.6-6.2-7.6-11c0-3.5,1.7-6.6,5-9.3c-7.8,3.1-15,8.7-21.7,16.9c-3.4,4.2-6.9,9.3-10.3,15.5
			c-3.4,6.2-5.2,10.8-5.2,13.9C1179.6,303.5,1180.1,304.7,1181,305.6z M1220.7,272.4c1.5-4.2,2.3-7.7,2.3-10.6
			c0-3.1-1.2-4.8-3.5-5.2c-2.4,2-3.5,4.7-3.5,8.2C1215.9,269,1217.5,271.5,1220.7,272.4z"/>
		<path stroke="#000000" stroke-width="6" stroke-miterlimit="10" d="M1301.1,264.3c14-11.3,23.2-16.9,27.8-16.9
			c7.6,0,11.4,3.7,11.4,11.2c0,6.9-6.2,17.5-18.5,31.9c-5.8,6.9-8.7,11.4-8.7,13.6c0,2,1.1,3,3.3,3c5.8,0,15.2-6.3,28.3-18.8
			c4.4-4.2,8.8-8.7,13.5-13.5c4.6-4.8,8.4-9.1,11.3-13l5.2-0.5c-30.3,35.8-52,52.6-65.1,50.4c-4-0.7-6.8-3-8.4-6.8l-0.8-5.2
			c0-6.2,2.6-12.7,7.9-19.6l14.4-18c2.9-3.5,4.4-6.3,4.4-8.4c0-1.3-0.6-1.9-1.9-1.9c-4.5,0-17.2,12.7-37.9,38.1l-16.6,20.7l-19.6,0
			l33-48.4c3.1-4.7,4.3-7.8,3.8-9.3c-0.4-0.9-1.1-1.3-2.2-1.1c-1.1,0.2-2.6,1-4.6,2.5c-2,1.5-4.5,3.4-7.5,5.7c-3,2.4-5.7,4.6-8,6.8
			c-3.6,3.3-10,11.3-19.1,24.2l-13.6,19.6l-19.1,0l40-60.4h18.8l-6.3,11.7l11.4-9c5.3-3.6,9.8-5.4,13.6-5.4
			c7.1,0,10.6,3.7,10.6,11.2L1301.1,264.3z"/>
	</g>
	<g>
		<path stroke="#000000" stroke-width="2" stroke-miterlimit="10" d="M136.2,460.5v-56.9h17.9c7.4,0,13.4,2.3,17.9,6.9
			c4.5,4.6,6.8,10.5,6.8,17.7v7.8c0,7.3-2.3,13.2-6.8,17.7c-4.5,4.5-10.5,6.8-17.9,6.8H136.2z M143.9,409.7v44.8h10.2
			c5.3,0,9.4-1.7,12.5-5.2c3-3.5,4.6-7.9,4.6-13.3v-7.9c0-5.4-1.5-9.8-4.6-13.3c-3-3.5-7.2-5.2-12.5-5.2H143.9z"/>
		<path stroke="#000000" stroke-width="2" stroke-miterlimit="10" d="M354,437.2c0,7-2.2,12.7-6.5,17.3c-4.3,4.6-9.9,6.9-16.8,6.9
			c-6.6,0-12-2.3-16.2-6.9c-4.2-4.6-6.2-10.4-6.2-17.3V427c0-6.9,2.1-12.7,6.2-17.3c4.2-4.6,9.6-6.9,16.2-6.9
			c6.9,0,12.5,2.3,16.8,6.9c4.3,4.6,6.5,10.4,6.5,17.3V437.2z M346.3,427c0-5.2-1.4-9.5-4.2-12.8s-6.6-5-11.3-5
			c-4.5,0-8.1,1.7-10.7,5c-2.7,3.3-4,7.6-4,12.8v10.2c0,5.3,1.3,9.6,4,12.9c2.7,3.3,6.2,5,10.7,5c4.8,0,8.6-1.7,11.4-5
			c2.8-3.3,4.2-7.6,4.2-12.9V427z"/>
		<path stroke="#000000" stroke-width="2" stroke-miterlimit="10" d="M528.3,460.5h-7.7l-27.4-43.5l-0.2,0.1v43.4h-7.7v-56.9h7.7
			l27.4,43.4l0.2-0.1v-43.4h7.7V460.5z"/>
		<path stroke="#000000" stroke-width="2" stroke-miterlimit="10" d="M661.7,460.5v-56.9h18.6c5.9,0,10.6,1.3,14,3.9
			c3.4,2.6,5,6.4,5,11.6c0,2.5-0.8,4.6-2.3,6.6c-1.5,1.9-3.5,3.4-6,4.4c3.7,0.5,6.7,2.1,8.9,4.8c2.2,2.7,3.3,5.9,3.3,9.6
			c0,5.2-1.7,9.2-5.1,11.9c-3.4,2.8-8,4.1-13.8,4.1H661.7z M669.4,427.8h12.5c2.9,0,5.2-0.8,7-2.4c1.8-1.6,2.7-3.8,2.7-6.6
			c0-3.1-1-5.4-2.9-6.9c-1.9-1.5-4.7-2.3-8.4-2.3h-10.9V427.8z M669.4,433.8v20.7h14.9c3.5,0,6.2-0.9,8.2-2.6
			c1.9-1.7,2.9-4.2,2.9-7.4c0-3.2-1-5.7-3-7.6s-4.7-3-8-3.1h-0.5H669.4z"/>
		<path stroke="#000000" stroke-width="2" stroke-miterlimit="10" d="M862.1,445.9h-21.4l-5.1,14.7h-7.9l20.5-56.9h6.6l20.1,56.9
			h-7.9L862.1,445.9z M842.9,439.4h17l-8.3-24.4h-0.2L842.9,439.4z"/>
		<path stroke="#000000" stroke-width="2" stroke-miterlimit="10" d="M1033.8,446.2c0-2.6-0.9-4.7-2.8-6.5c-1.8-1.7-5.1-3.2-9.8-4.5
			c-5.8-1.4-10.3-3.5-13.5-6.3c-3.2-2.8-4.9-6.3-4.9-10.5c0-4.5,1.7-8.2,5.2-11.1c3.5-3,8-4.5,13.6-4.5c6,0,10.8,1.7,14.3,5.1
			c3.6,3.4,5.3,7.4,5.2,11.9l-0.1,0.2h-7.3c0-3.2-1.1-5.9-3.4-8s-5.1-3.2-8.7-3.2c-3.6,0-6.4,0.9-8.3,2.6c-1.9,1.7-2.9,4-2.9,6.8
			c0,2.5,1,4.5,3.1,6.2c2.1,1.7,5.5,3.1,10.2,4.4c5.7,1.5,10.1,3.7,13.1,6.6c3,2.9,4.5,6.5,4.5,10.7c0,4.6-1.8,8.3-5.4,11.1
			c-3.6,2.8-8.3,4.2-14.1,4.2c-5.5,0-10.4-1.5-14.6-4.6s-6.3-7.2-6.1-12.4l0.1-0.2h7.4c0,3.6,1.4,6.3,4.1,8.3s5.8,2.9,9.2,2.9
			c3.7,0,6.5-0.8,8.7-2.5C1032.7,451.2,1033.8,449,1033.8,446.2z"/>
		<path stroke="#000000" stroke-width="2" stroke-miterlimit="10" d="M1202.8,446.2c0-2.6-0.9-4.7-2.8-6.5c-1.8-1.7-5.1-3.2-9.8-4.5
			c-5.8-1.4-10.3-3.5-13.5-6.3c-3.2-2.8-4.9-6.3-4.9-10.5c0-4.5,1.7-8.2,5.2-11.1c3.5-3,8-4.5,13.6-4.5c6,0,10.8,1.7,14.3,5.1
			c3.6,3.4,5.3,7.4,5.2,11.9l-0.1,0.2h-7.3c0-3.2-1.1-5.9-3.4-8s-5.1-3.2-8.7-3.2c-3.6,0-6.4,0.9-8.3,2.6c-1.9,1.7-2.9,4-2.9,6.8
			c0,2.5,1,4.5,3.1,6.2c2.1,1.7,5.5,3.1,10.2,4.4c5.7,1.5,10.1,3.7,13.1,6.6c3,2.9,4.5,6.5,4.5,10.7c0,4.6-1.8,8.3-5.4,11.1
			c-3.6,2.8-8.3,4.2-14.1,4.2c-5.5,0-10.4-1.5-14.6-4.6s-6.3-7.2-6.1-12.4l0.1-0.2h7.4c0,3.6,1.4,6.3,4.1,8.3s5.8,2.9,9.2,2.9
			c3.7,0,6.5-0.8,8.7-2.5C1201.8,451.2,1202.8,449,1202.8,446.2z"/>
	</g>
</g>
</svg>
