<?xml version="1.0" encoding="utf-8"?>
<!-- Generator: Adobe Illustrator 17.1.0, SVG Export Plug-In . SVG Version: 6.00 Build 0)  -->
<!DOCTYPE svg PUBLIC "-//W3C//DTD SVG 1.1//EN" "http://www.w3.org/Graphics/SVG/1.1/DTD/svg11.dtd">
<svg version="1.1" id="Layer_1" xmlns="http://www.w3.org/2000/svg" xmlns:xlink="http://www.w3.org/1999/xlink" x="0px" y="0px"
	 viewBox="0 0 1400 700" enable-background="new 0 0 1400 700" xml:space="preserve">
<g>
	<path fill="#444444" d="M531.4,520.9l-14.9-45.7h-80.6l-16,45.7h-33.1l88-219.7h7.8l81.7,219.7H531.4z M477.3,358l-33.6,95.4H508
		L477.3,358z"/>
	<path fill="#444444" d="M707.3,520.9l-57.9-93.1c-6.6,0-17.1-0.5-31.4-1.5v94.5h-29.6V304.1c1.1,0,8.8-0.4,23-1.1
		c14.3-0.7,24.6-1.1,31.1-1.1c52.1,0,78.1,20.7,78.1,62.1c0,13.6-4.2,25.9-12.6,36.8c-8.4,10.9-18.3,17.7-29.9,20.3l62.9,99.7H707.3
		L707.3,520.9z M618.1,330.8v70.4c7.1,1,14,1.5,20.7,1.5c17.8,0,30.7-2.9,38.8-8.6c8.1-5.7,12.1-15.9,12.1-30.6
		c0-12.1-4.3-20.9-13-26.2c-8.7-5.3-22.4-8-41.1-8C632.6,329.3,626.8,329.8,618.1,330.8z"/>
	<path fill="#444444" d="M903.5,523.9l-112-158.5v155.5h-28.1V304.1h11.8l109,149.9V304.1h28.1v219.7H903.5z"/>
	<path fill="#444444" d="M962,520.9V304.1h29.6v216.8H962L962,520.9z"/>
	<path fill="#444444" d="M1160.7,520.9l-61.1-99.7l-28.9,41v58.7h-29.6V304.1h29.6v117.9l80.5-117.9h33l-64.8,94l74,122.8H1160.7
		L1160.7,520.9z"/>
	<path fill="#444444" d="M1338.7,520.9l-14.9-45.7h-80.6l-16,45.7H1194l88-219.7h7.8l81.7,219.7H1338.7z M1284.5,358l-33.6,95.4
		h64.4L1284.5,358z"/>
</g>
<linearGradient id="SVGID_1_" gradientUnits="userSpaceOnUse" x1="23.1582" y1="839.3543" x2="256.7765" y2="347.5178" gradientTransform="matrix(0.9382 0 0 -0.9382 0 729.0685)">
	<stop  offset="0.3132" style="stop-color:#3CBC80"/>
	<stop  offset="0.5011" style="stop-color:#3BBA7E"/>
	<stop  offset="0.5986" style="stop-color:#39B279"/>
	<stop  offset="0.6754" style="stop-color:#34A470"/>
	<stop  offset="0.7413" style="stop-color:#2E9163"/>
	<stop  offset="0.8003" style="stop-color:#277952"/>
	<stop  offset="0.8544" style="stop-color:#1D5A3D"/>
	<stop  offset="0.9047" style="stop-color:#113625"/>
	<stop  offset="0.9507" style="stop-color:#040D09"/>
	<stop  offset="0.9641" style="stop-color:#000000"/>
</linearGradient>
<path fill="url(#SVGID_1_)" d="M338,330.2c0,0-104.1-98-159.1-140.1C114.7,141,5.4,73.2,5.4,73.2s-19,88.6,17.2,145.3
	c76.8,120.4,278.9,159.1,278.9,159.1L338,330.2z"/>
<linearGradient id="SVGID_2_" gradientUnits="userSpaceOnUse" x1="-6.3126" y1="553.8574" x2="261.451" y2="242.0505" gradientTransform="matrix(0.9382 0 0 -0.9382 0 729.0685)">
	<stop  offset="0.4118" style="stop-color:#3C9AC7"/>
	<stop  offset="0.6129" style="stop-color:#3B99C5"/>
	<stop  offset="0.6853" style="stop-color:#3993BE"/>
	<stop  offset="0.737" style="stop-color:#368AB3"/>
	<stop  offset="0.7788" style="stop-color:#317DA2"/>
	<stop  offset="0.8145" style="stop-color:#2A6C8C"/>
	<stop  offset="0.8462" style="stop-color:#225770"/>
	<stop  offset="0.8749" style="stop-color:#183E50"/>
	<stop  offset="0.9003" style="stop-color:#0D222C"/>
	<stop  offset="0.9239" style="stop-color:#010203"/>
	<stop  offset="0.9252" style="stop-color:#000000"/>
</linearGradient>
<path fill="url(#SVGID_2_)" d="M338,330.2c0,0-33.2,2.4-65.9,15.6c-27.1,10.9-89.8,39.3-127,65.9C90.8,450.5,19.7,519,19.7,519
	s54.9,27.7,103.1,13c102.4-31.3,183.2-160.5,183.2-160.5L338,330.2z"/>
<linearGradient id="SVGID_3_" gradientUnits="userSpaceOnUse" x1="116.2057" y1="657.7111" x2="397.0599" y2="277.3896" gradientTransform="matrix(0.9382 0 0 -0.9382 0 729.0685)">
	<stop  offset="0.2846" style="stop-color:#3C9AC7"/>
	<stop  offset="0.5648" style="stop-color:#3B99C5"/>
	<stop  offset="0.6657" style="stop-color:#3993BE"/>
	<stop  offset="0.7377" style="stop-color:#368AB3"/>
	<stop  offset="0.7959" style="stop-color:#317DA2"/>
	<stop  offset="0.8458" style="stop-color:#2A6C8C"/>
	<stop  offset="0.8899" style="stop-color:#225770"/>
	<stop  offset="0.9298" style="stop-color:#183E50"/>
	<stop  offset="0.9653" style="stop-color:#0D222C"/>
	<stop  offset="0.9981" style="stop-color:#010203"/>
	<stop  offset="1" style="stop-color:#000000"/>
</linearGradient>
<path fill="url(#SVGID_3_)" d="M300.4,505.2c-7.3,5.3-18.3,10.8-29.7,14.9c-9.8,3.5-26.3,10.3-24.6,5.9
	c15.9-40.8,110.5-214.3,155.7-231.3c19.3-7.2,20.1,23.5,19.3,30c-0.6,4.8-5.9,16.3-6.2,16.8c-13.3,23-41.5,15.4-41.5,15.4
	S321.2,490.1,300.4,505.2z"/>
<linearGradient id="SVGID_4_" gradientUnits="userSpaceOnUse" x1="75.409" y1="135.4835" x2="1489.333" y2="135.4835" gradientTransform="matrix(0.9382 0 0 -0.9382 0 729.0685)">
	<stop  offset="4.670000e-002" style="stop-color:#3C9AC7"/>
	<stop  offset="0.1024" style="stop-color:#3CA3B4"/>
	<stop  offset="0.1869" style="stop-color:#3CAE9D"/>
	<stop  offset="0.2784" style="stop-color:#3CB68D"/>
	<stop  offset="0.3808" style="stop-color:#3CBB83"/>
	<stop  offset="0.5165" style="stop-color:#3CBC80"/>
	<stop  offset="0.6215" style="stop-color:#3CBA84"/>
	<stop  offset="0.7287" style="stop-color:#3CB490"/>
	<stop  offset="0.8369" style="stop-color:#3CAAA5"/>
	<stop  offset="0.9451" style="stop-color:#3C9DC1"/>
	<stop  offset="0.9641" style="stop-color:#3C9AC7"/>
</linearGradient>
<path fill="url(#SVGID_4_)" d="M70.7,603.8c0,0,5.1-1,14.7-2.6c4.8-0.9,10.7-1.8,17.7-2.8c7-1.1,15-2.2,24.1-3.3
	c9-1.1,19-2.5,29.9-3.6c10.9-1.1,22.7-2.3,35.3-3.5c12.6-1.4,26.1-2.1,40.3-3.2c7.1-0.5,14.4-1,21.8-1.6c7.4-0.5,15.1-0.9,22.9-1.3
	c15.6-0.9,31.8-1.5,48.6-2.4c16.8-0.5,34.2-1,52.1-1.5c8.9-0.2,18-0.4,27.2-0.6c9.2,0,18.5,0.1,27.9,0.1c18.9,0.3,38.2,0.8,57.6,1.5
	c39,1.4,79.2,3.7,120,6.2c40.8,2.5,82.2,5.1,123.6,7.7c41.4,2.7,82.8,5.3,123.5,7.4c40.7,2,80.8,4.1,119.6,5.2
	c19.4,0.7,38.4,0.9,57.1,1.2c18.7,0.2,37,0.3,54.8,0.5c8.9,0.1,17.7,0.2,26.4,0.3c8.6,0,17.2-0.1,25.5-0.1c16.7,0,32.9,0,48.5-0.1
	c31.1-0.3,59.6-0.6,84.9-0.9c12.6-0.2,24.5-0.3,35.4-0.6c10.9-0.2,21-0.4,30.1-0.5c18.2-0.4,32.4-0.8,42.2-1
	c9.7-0.3,14.9-0.4,14.9-0.4s-5.2,0.6-14.8,1.8c-9.7,1.2-23.9,2.8-42,4.6c-18.1,1.7-40.1,3.9-65.3,5.7c-12.6,0.9-26.1,2.2-40.2,2.9
	c-14.2,0.8-29.1,1.7-44.7,2.6c-15.6,0.9-31.8,1.6-48.6,2.2c-8.4,0.3-17,0.7-25.6,1c-8.7,0.2-17.5,0.5-26.4,0.7
	c-17.9,0.4-36.1,1-55,1.1c-18.8,0-38,0.1-57.5-0.3c-19.5-0.2-39.3-0.8-59.4-1.3c-10-0.3-20.1-0.7-30.3-1.1
	c-10.1-0.4-20.3-0.8-30.5-1.4c-40.9-1.9-82.4-4.3-123.8-6.8c-41.5-2.5-82.9-5.5-123.6-8.2c-40.7-2.7-80.8-5.1-119.6-7.2
	c-19.4-1.1-38.3-1.8-56.9-2.4c-9.3-0.2-18.5-0.4-27.7-0.5c-9.1,0-18.1-0.1-27-0.1c-17.8-0.2-35.1-0.4-51.9-0.5
	c-16.7,0.1-32.9,0.3-48.5,0.3c-7.8,0-15.4-0.1-22.8,0.1c-7.4,0.1-14.7,0.3-21.8,0.4c-7.1,0.1-14,0.3-20.7,0.4
	c-6.7,0.1-13.2,0.1-19.5,0.4c-12.6,0.4-24.4,0.7-35.4,1.1c-10.9,0.4-21,0.9-30,1.2c-9.1,0.3-17.2,0.9-24.2,1.2c-7,0.4-13,0.6-17.9,1
	C75.9,603.3,70.7,603.8,70.7,603.8z"/>
</svg>
