<?xml version="1.0" encoding="utf-8"?>
<!-- Generator: Adobe Illustrator 17.1.0, SVG Export Plug-In . SVG Version: 6.00 Build 0)  -->
<!DOCTYPE svg PUBLIC "-//W3C//DTD SVG 1.1//EN" "http://www.w3.org/Graphics/SVG/1.1/DTD/svg11.dtd">
<svg version="1.1" id="Layer_1" xmlns="http://www.w3.org/2000/svg" xmlns:xlink="http://www.w3.org/1999/xlink" x="0px" y="0px"
	 viewBox="40.6 0 1139.9 569.6" enable-background="new 40.6 0 1139.9 569.6" xml:space="preserve">
<g>
	<g>
		<g>
			<path fill="#666666" d="M803.6,336c0.1,3.7-2.6,6.6-6.8,6.6c-3.8,0-6.4-2.9-6.4-6.6c0-3.8,2.8-6.7,6.7-6.7
				C801.1,329.4,803.6,332.3,803.6,336z M791.7,411.5v-58.9h10.7v58.9H791.7z"/>
			<path fill="#666666" d="M831.1,329.5v34.3h39.7v-34.3h10.7v82h-10.7V373h-39.7v38.4h-10.6v-82H831.1z"/>
			<path fill="#666666" d="M905.5,384c0.2,14.5,9.5,20.4,20.2,20.4c7.7,0,12.3-1.3,16.3-3l1.8,7.7c-3.8,1.7-10.2,3.7-19.6,3.7
				c-18.1,0-29-11.9-29-29.7s10.5-31.8,27.6-31.8c19.2,0,24.3,16.9,24.3,27.7c0,2.2-0.2,3.9-0.4,5H905.5z M936.8,376.3
				c0.1-6.8-2.8-17.4-14.8-17.4c-10.8,0-15.6,10-16.4,17.4H936.8z"/>
			<path fill="#666666" d="M993.1,411.5l-0.9-7.4h-0.4c-3.3,4.6-9.6,8.8-18,8.8c-11.9,0-18-8.4-18-16.9c0-14.2,12.7-22,35.4-21.9
				v-1.2c0-4.9-1.3-13.6-13.4-13.6c-5.5,0-11.2,1.7-15.3,4.4l-2.4-7.1c4.9-3.2,11.9-5.2,19.3-5.2c18,0,22.4,12.3,22.4,24.1v22
				c0,5.1,0.2,10.1,1,14.1H993.1z M991.5,381.4c-11.7-0.2-24.9,1.8-24.9,13.3c0,6.9,4.6,10.2,10.1,10.2c7.7,0,12.5-4.9,14.2-9.9
				c0.4-1.1,0.6-2.3,0.6-3.4V381.4z"/>
			<path fill="#666666" d="M1019.1,325.1h10.7v86.4h-10.7V325.1z"/>
			<path fill="#666666" d="M1060.7,335.7v16.9h15.3v8.2h-15.3v31.8c0,7.3,2.1,11.4,8,11.4c2.8,0,4.9-0.4,6.2-0.7l0.5,8
				c-2.1,0.9-5.4,1.5-9.5,1.5c-5,0-9-1.6-11.6-4.5c-3-3.2-4.1-8.4-4.1-15.3v-32.1h-9.1v-8.2h9.1v-14.1L1060.7,335.7z"/>
			<path fill="#666666" d="M1088.1,325.1h10.7v36.7h0.2c1.7-3,4.4-5.7,7.7-7.5c3.2-1.8,6.9-3,11-3c7.9,0,20.6,4.9,20.6,25.2v35
				h-10.7v-33.8c0-9.5-3.5-17.5-13.6-17.5c-6.9,0-12.4,4.9-14.4,10.7c-0.6,1.5-0.7,3-0.7,5.1v35.5h-10.7V325.1z"/>
		</g>
		<g>
			<g>
				<path fill="#666666" d="M752.5,434.4V473c0,2.8,0.1,6.1,0.3,8.2h-5.2l-0.3-5.5h-0.1c-1.8,3.6-5.7,6.3-10.9,6.3
					c-7.7,0-13.6-6.5-13.6-16.2c-0.1-10.6,6.5-17.1,14.3-17.1c4.9,0,8.2,2.3,9.6,4.9h0.1v-19H752.5z M746.7,462.3
					c0-0.7-0.1-1.7-0.3-2.4c-0.9-3.7-4-6.7-8.4-6.7c-6,0-9.6,5.3-9.6,12.3c0,6.5,3.2,11.8,9.4,11.8c3.9,0,7.4-2.6,8.5-6.9
					c0.2-0.8,0.3-1.6,0.3-2.5V462.3z"/>
				<path fill="#666666" d="M762.1,459.3c0-3.8-0.1-7-0.3-9.9h5.1l0.2,6.3h0.3c1.4-4.3,4.9-7,8.8-7c0.7,0,1.1,0.1,1.6,0.2v5.5
					c-0.6-0.1-1.2-0.2-2-0.2c-4.1,0-7,3.1-7.8,7.4c-0.1,0.8-0.3,1.7-0.3,2.7v17h-5.7V459.3z"/>
				<path fill="#666666" d="M810.3,472.5c0,3.3,0.1,6.2,0.3,8.7h-5.1l-0.3-5.2H805c-1.5,2.6-4.9,5.9-10.5,5.9c-5,0-11-2.8-11-14
					v-18.6h5.8V467c0,6.1,1.8,10.1,7.1,10.1c3.9,0,6.6-2.7,7.6-5.3c0.3-0.9,0.5-1.9,0.5-3v-19.6h5.8V472.5z"/>
				<path fill="#666666" d="M847.4,449.3c-0.1,2.3-0.3,4.9-0.3,8.8v18.5c0,7.3-1.4,11.8-4.5,14.6c-3.1,2.9-7.6,3.8-11.6,3.8
					c-3.8,0-8-0.9-10.6-2.6l1.4-4.4c2.1,1.3,5.4,2.5,9.4,2.5c5.9,0,10.3-3.1,10.3-11.1v-3.6h-0.1c-1.8,3-5.2,5.3-10.1,5.3
					c-7.9,0-13.6-6.7-13.6-15.5c0-10.8,7-16.9,14.4-16.9c5.5,0,8.6,2.9,9.9,5.5h0.1l0.3-4.8H847.4z M841.4,461.9
					c0-1-0.1-1.8-0.3-2.6c-1.1-3.4-3.9-6.1-8.1-6.1c-5.5,0-9.5,4.7-9.5,12.1c0,6.3,3.2,11.5,9.4,11.5c3.6,0,6.8-2.2,8-5.9
					c0.3-1,0.5-2.1,0.5-3.1V461.9z"/>
				<path fill="#666666" d="M856,475.3c1.7,1.1,4.7,2.3,7.6,2.3c4.2,0,6.2-2.1,6.2-4.7c0-2.8-1.6-4.3-5.9-5.9c-5.7-2-8.4-5.2-8.4-9
					c0-5.1,4.2-9.4,11-9.4c3.2,0,6.1,0.9,7.8,2l-1.4,4.2c-1.3-0.8-3.6-1.8-6.5-1.8c-3.4,0-5.3,2-5.3,4.3c0,2.6,1.9,3.8,6.1,5.4
					c5.5,2.1,8.4,4.9,8.4,9.6c0,5.6-4.3,9.6-11.9,9.6c-3.5,0-6.7-0.9-9-2.2L856,475.3z"/>
				<path fill="#666666" d="M889.8,440.2v9.2h8.3v4.4h-8.3v17.2c0,4,1.1,6.2,4.3,6.2c1.5,0,2.6-0.2,3.4-0.4l0.3,4.3
					c-1.1,0.5-2.9,0.8-5.1,0.8c-2.7,0-4.9-0.9-6.3-2.4c-1.6-1.7-2.2-4.5-2.2-8.3v-17.4h-4.9v-4.4h4.9v-7.6L889.8,440.2z"/>
				<path fill="#666666" d="M933.1,465c0,11.8-8.2,16.9-15.9,16.9c-8.6,0-15.3-6.3-15.3-16.4c0-10.7,7-16.9,15.8-16.9
					C926.9,448.6,933.1,455.3,933.1,465z M907.8,465.3c0,7,4,12.3,9.7,12.3c5.5,0,9.7-5.2,9.7-12.4c0-5.4-2.7-12.3-9.6-12.3
					S907.8,459.3,907.8,465.3z"/>
				<path fill="#666666" d="M940.4,459.3c0-3.8-0.1-7-0.3-9.9h5.1l0.2,6.3h0.3c1.4-4.3,4.9-7,8.8-7c0.7,0,1.1,0.1,1.6,0.2v5.5
					c-0.6-0.1-1.2-0.2-2-0.2c-4.1,0-7,3.1-7.8,7.4c-0.1,0.8-0.3,1.7-0.3,2.7v17h-5.7V459.3z"/>
				<path fill="#666666" d="M964.5,466.3c0.1,7.8,5.1,11.1,10.9,11.1c4.1,0,6.7-0.7,8.8-1.6l1,4.2c-2,0.9-5.5,2-10.6,2
					c-9.8,0-15.7-6.5-15.7-16.1s5.7-17.2,15-17.2c10.4,0,13.2,9.2,13.2,15c0,1.2-0.1,2.1-0.2,2.7H964.5z M981.5,462.2
					c0.1-3.7-1.5-9.4-8-9.4c-5.9,0-8.4,5.4-8.9,9.4H981.5z"/>
			</g>
		</g>
	</g>
	<g>
		<linearGradient id="SVGID_1_" gradientUnits="userSpaceOnUse" x1="24.2219" y1="287.6343" x2="758.8863" y2="287.6343">
			<stop  offset="0" style="stop-color:#D5E2A6"/>
			<stop  offset="0.5" style="stop-color:#B6D27E"/>
			<stop  offset="1" style="stop-color:#8BB64B"/>
		</linearGradient>
		<path fill="url(#SVGID_1_)" d="M745.8,171.6c0,0-123.6-80.1-247.2-22.9c-123.6,57.2-320.4,169.4-444,91.5
			c0,0,169.4,286.1,519.5,185.4l91.5-91.5l91.5-61.8l32-82.4L745.8,171.6z"/>
		<linearGradient id="SVGID_2_" gradientUnits="userSpaceOnUse" x1="619.9464" y1="102.9606" x2="757.2605" y2="102.9606">
			<stop  offset="0" style="stop-color:#85BE8A"/>
			<stop  offset="0.5" style="stop-color:#5CA256"/>
			<stop  offset="1" style="stop-color:#518F51"/>
		</linearGradient>
		<path fill="url(#SVGID_2_)" d="M757.3,103c0,37.9-30.7,68.7-68.7,68.7s-68.7-30.7-68.7-68.7c0-37.9,30.7-68.7,68.7-68.7
			S757.3,65,757.3,103z"/>
		<linearGradient id="SVGID_3_" gradientUnits="userSpaceOnUse" x1="310.9702" y1="290.6326" x2="860.2545" y2="290.6326">
			<stop  offset="0" style="stop-color:#85BE8A"/>
			<stop  offset="0.5" style="stop-color:#5CA256"/>
			<stop  offset="1" style="stop-color:#518F51"/>
		</linearGradient>
		<path fill="url(#SVGID_3_)" d="M860.3,34.3c0,0-38.9,103-114.4,137.3c0,0,11.4,50.4-27.5,91.5c0,0-103-137.3-290.7,36.6
			c0,0,155.6-64.1,151,22.9c-4.6,87-169.4,210.6-267.8,224.3C311,547,789.3,547,860.3,34.3z"/>
	</g>
</g>
</svg>
