<?xml version="1.0" encoding="utf-8"?>
<!-- Generator: Adobe Illustrator 17.1.0, SVG Export Plug-In . SVG Version: 6.00 Build 0)  -->
<!DOCTYPE svg PUBLIC "-//W3C//DTD SVG 1.1//EN" "http://www.w3.org/Graphics/SVG/1.1/DTD/svg11.dtd">
<svg version="1.1" id="Layer_1" xmlns="http://www.w3.org/2000/svg" xmlns:xlink="http://www.w3.org/1999/xlink" x="0px" y="0px"
	 viewBox="28.6 0 580.5 700" enable-background="new 28.6 0 580.5 700" xml:space="preserve">
<g>
	<path d="M71.1,641c7.2,0,12.7-2,16.6-6c3.9-4,5.9-9.4,5.9-16.1c0-3.6-0.6-6.8-1.8-9.6s-2.8-5.3-4.7-7.6c-1.9-2.3-4.2-4.3-6.7-6.2
		c-2.5-1.9-5.1-3.7-7.8-5.6c-3.1-2.1-6.2-4.4-9.6-6.8c-3.3-2.4-6.3-5.2-9.1-8.4c-2.7-3.2-4.9-6.9-6.7-11.2
		c-1.7-4.2-2.6-9.2-2.6-14.9c0-5.6,1-10.6,2.9-15.1c1.9-4.5,4.6-8.4,8-11.5c3.4-3.2,7.4-5.6,12.1-7.4c4.7-1.7,9.8-2.6,15.2-2.6
		c5.3,0,10.2,0.7,14.7,2c4.5,1.3,8.3,2.9,11.4,4.8l-5.6,14.1c-2.8-1.9-5.8-3.3-9.1-4.3c-3.3-1-6.7-1.5-10.3-1.5
		c-6.5,0-11.7,1.8-15.6,5.3c-3.9,3.5-5.9,8.7-5.9,15.4c0,3.7,0.6,7,1.9,9.8c1.3,2.8,2.9,5.3,5,7.6c2.1,2.3,4.4,4.3,7.2,6.2
		c2.7,1.9,5.6,3.8,8.7,5.8c3.1,2,6.2,4.2,9.4,6.6c3.2,2.4,6.1,5.1,8.7,8.3c2.6,3.1,4.7,6.8,6.4,11c1.7,4.2,2.5,9.1,2.5,14.8
		c0,5.2-0.8,10.1-2.4,14.7c-1.6,4.6-4.1,8.7-7.5,12.2c-3.4,3.5-7.6,6.3-12.7,8.4c-5.1,2.1-11.1,3.1-18,3.1c-6.4,0-11.9-0.7-16.7-2.2
		c-4.8-1.5-9-3.4-12.7-5.8l5.6-14.3c3.5,2.1,7,3.8,10.7,5.1C62.1,640.4,66.3,641,71.1,641z"/>
	<path d="M138,551c3.5-1.5,7.1-2.6,11-3.5c3.8-0.9,8-1.3,12.5-1.3c9.3,0,16.9,2.9,22.7,8.7c5.8,5.8,8.8,14.8,8.8,27v69.3
		c-4.8,1.3-9.7,2.4-14.6,3.2c-5,0.8-9.9,1.2-14.6,1.2s-9.3-0.6-13.4-1.8c-4.2-1.2-7.8-3.1-11-5.8c-3.1-2.7-5.6-6-7.5-10.1
		c-1.9-4-2.8-9-2.8-14.8c0-5.4,0.8-10.2,2.5-14.2c1.7-4,3.9-7.4,6.9-10.2c2.9-2.7,6.4-4.8,10.4-6.2s8.3-2.1,12.9-2.1
		c4.4,0,9.2,0.5,14.5,1.6v-9.6c0-7.7-1.5-13.1-4.5-16.1c-3-3.1-7.3-4.6-12.8-4.6c-3.1,0-5.9,0.3-8.7,0.9c-2.7,0.6-5.6,1.6-8.7,2.9
		L138,551z M146.1,622.9c0,6.1,1.6,10.6,4.8,13.5c3.2,2.9,7.7,4.4,13.5,4.4c3.6,0,7.5-0.5,11.7-1.4v-33.3c-4-1.1-7.9-1.6-11.7-1.6
		c-2.5,0-4.9,0.3-7.2,0.9c-2.3,0.6-4.2,1.6-5.9,3c-1.7,1.4-3,3.3-3.9,5.6C146.6,616.3,146.1,619.3,146.1,622.9z"/>
	<path d="M268,564.3c-4.3-1.9-9-2.8-14.3-2.8c-4.9,0-9.5,0.9-13.7,2.6v89.2h-17.1v-100c3.8-1.9,8.3-3.4,13.2-4.7
		c5-1.3,10.5-1.9,16.4-1.9c3.2,0,6.4,0.2,9.6,0.6c3.2,0.4,6.2,1.1,9,2.2L268,564.3z"/>
	<path d="M297.9,606.1c0.1,5,0.6,9.7,1.4,13.8c0.8,4.2,2.1,7.8,3.9,11c1.8,3.1,4.2,5.5,7.2,7.3c3,1.7,6.8,2.6,11.5,2.6
		c3.8,0,7.4-0.6,10.7-1.7c3.3-1.1,5.6-2.1,7.1-2.9l3.2,13.7c-1.7,1.2-4.6,2.5-8.7,3.9c-4.1,1.4-8.9,2.1-14.4,2.1
		c-7.3,0-13.4-1.3-18.4-4c-5-2.7-9-6.4-12.1-11.2c-3.1-4.8-5.3-10.5-6.7-17.1c-1.3-6.6-2-13.9-2-21.9c0-19.2,3.2-33.3,9.6-42.2
		c6.4-8.9,14.8-13.3,25.3-13.3c11.8,0,20.2,4.5,25.1,13.3c4.9,8.9,7.4,21.4,7.4,37.4c0,1.5,0,3,0,4.5c0,1.5-0.1,3.1-0.2,4.7H297.9z
		 M315.2,560.7c-5.7,0-9.9,2.9-12.4,8.6c-2.6,5.7-4.2,13.3-4.7,22.9h31.7c0-9.7-1-17.4-3-23C324.8,563.6,320.9,560.7,315.2,560.7z"
		/>
	<path d="M389.9,690.2h-17.1V551.6c3.7-1.6,7.9-2.9,12.6-3.9c4.7-1,9.5-1.5,14.4-1.5c7.3,0,13.6,1.3,18.8,3.8
		c5.2,2.5,9.5,6.1,12.7,10.9c3.3,4.7,5.6,10.5,7.2,17.3c1.5,6.8,2.3,14.6,2.3,23.4c0,17.7-2.8,31.1-8.5,40.4
		c-5.6,9.3-14.8,13.9-27.6,13.9c-3.1,0-5.8-0.3-8.2-0.9c-2.4-0.6-4.6-1.4-6.8-2.5V690.2z M389.9,637.6c3.8,2.1,8,3.2,12.3,3.2
		c3.3,0,6.2-0.7,8.8-2c2.5-1.3,4.7-3.5,6.5-6.6c1.8-3.1,3.2-7.1,4.1-12.1c0.9-5,1.4-11.3,1.4-18.7c0-14.3-1.8-24.6-5.5-30.8
		c-3.7-6.2-9.5-9.3-17.4-9.3c-1.5,0-3.1,0.1-4.8,0.3c-1.7,0.2-3.5,0.6-5.4,1.1V637.6z"/>
	<path d="M481.9,548.8h26.3v14.7h-26.3v57.6c0,7.2,1.3,12.2,3.9,15c2.6,2.9,6.1,4.3,10.5,4.3c2.3,0,4.4-0.3,6.5-1
		c2.1-0.7,3.8-1.5,5.3-2.4l3.4,13.7c-5.4,3.2-11.2,4.8-17.3,4.8c-9.8,0-17.2-2.8-22-8.3c-4.8-5.5-7.3-14.6-7.3-27.4v-99.2l17.1-3
		V548.8z"/>
	<path d="M531.5,551c3.5-1.5,7.1-2.6,11-3.5c3.8-0.9,8-1.3,12.5-1.3c9.3,0,16.9,2.9,22.7,8.7c5.8,5.8,8.8,14.8,8.8,27v69.3
		c-4.8,1.3-9.7,2.4-14.6,3.2c-5,0.8-9.9,1.2-14.6,1.2s-9.3-0.6-13.4-1.8c-4.2-1.2-7.8-3.1-11-5.8c-3.1-2.7-5.6-6-7.5-10.1
		c-1.9-4-2.8-9-2.8-14.8c0-5.4,0.8-10.2,2.5-14.2c1.7-4,3.9-7.4,6.9-10.2c2.9-2.7,6.4-4.8,10.4-6.2s8.3-2.1,12.9-2.1
		c4.4,0,9.2,0.5,14.5,1.6v-9.6c0-7.7-1.5-13.1-4.5-16.1c-3-3.1-7.3-4.6-12.8-4.6c-3.1,0-5.9,0.3-8.7,0.9c-2.7,0.6-5.6,1.6-8.7,2.9
		L531.5,551z M539.6,622.9c0,6.1,1.6,10.6,4.8,13.5c3.2,2.9,7.7,4.4,13.5,4.4c3.6,0,7.5-0.5,11.7-1.4v-33.3c-4-1.1-7.9-1.6-11.7-1.6
		c-2.5,0-4.9,0.3-7.2,0.9c-2.3,0.6-4.2,1.6-5.9,3c-1.7,1.4-3,3.3-3.9,5.6C540.1,616.3,539.6,619.3,539.6,622.9z"/>
</g>
<g>
	<linearGradient id="SVGID_1_" gradientUnits="userSpaceOnUse" x1="208.6517" y1="52.2843" x2="483.4398" y2="52.2843">
		<stop  offset="0" style="stop-color:#9DCED7"/>
		<stop  offset="0.3316" style="stop-color:#8BBFC9"/>
		<stop  offset="0.9916" style="stop-color:#5E9AA4"/>
		<stop  offset="1" style="stop-color:#5D99A3"/>
	</linearGradient>
	<path fill="url(#SVGID_1_)" d="M479.4,93.2c-41.1-53-105.3-87.1-177.5-87.1c-33.3,0-64.8,7.3-93.3,20.3c4.6-0.3,9.3-0.5,14-0.5
		c59.8,0,114.1,23.4,154.4,61.6c10-1.4,20.2-2.1,30.6-2.1c25.2,0,49.5,4.2,72.1,11.9c1.2,0.4,2.5,0.8,3.7,1.3
		C482.1,96.7,480.8,94.9,479.4,93.2z"/>
	<linearGradient id="SVGID_2_" gradientUnits="userSpaceOnUse" x1="315.9214" y1="270.0182" x2="526.4747" y2="270.0182">
		<stop  offset="0" style="stop-color:#9DCED7"/>
		<stop  offset="0.3316" style="stop-color:#8BBFC9"/>
		<stop  offset="0.9916" style="stop-color:#5E9AA4"/>
		<stop  offset="1" style="stop-color:#5D99A3"/>
	</linearGradient>
	<path fill="url(#SVGID_2_)" d="M483.4,98.5c-1.2-0.4-2.5-0.8-3.7-1.3c-22.7-7.7-46.9-11.9-72.1-11.9c-10.4,0-20.6,0.8-30.6,2.1
		c38.7,36.6,64.3,86.8,69.2,143c0.6,6.6,0.9,13.3,0.9,20c0,90.7-53.8,168.8-131.3,204.3c117.5-7.2,210.6-104.8,210.6-224.1
		C526.5,181.2,510.5,135.6,483.4,98.5z"/>
	<linearGradient id="SVGID_3_" gradientUnits="userSpaceOnUse" x1="78.185" y1="345.6206" x2="226.0706" y2="345.6206">
		<stop  offset="0" style="stop-color:#9DCED7"/>
		<stop  offset="0.3316" style="stop-color:#8BBFC9"/>
		<stop  offset="0.9916" style="stop-color:#5E9AA4"/>
		<stop  offset="1" style="stop-color:#5D99A3"/>
	</linearGradient>
	<path fill="url(#SVGID_3_)" d="M78.2,249.2C85.5,338.5,145,412.9,226.1,442c-24.4-33.4-39.7-73.8-42.5-117.6
		C141.4,310.1,104.9,283.7,78.2,249.2z"/>
	<linearGradient id="SVGID_4_" gradientUnits="userSpaceOnUse" x1="183.55" y1="342.8179" x2="447.2159" y2="342.8179">
		<stop  offset="0" style="stop-color:#9DCED7"/>
		<stop  offset="0.3316" style="stop-color:#8BBFC9"/>
		<stop  offset="0.9916" style="stop-color:#5E9AA4"/>
		<stop  offset="1" style="stop-color:#5D99A3"/>
	</linearGradient>
	<path fill="url(#SVGID_4_)" d="M447.2,250.4c0-6.7-0.3-13.4-0.9-20C406.6,294,336.1,336.3,255.7,336.3c-25.2,0-49.5-4.2-72.1-11.9
		c2.8,43.8,18.2,84.2,42.5,117.6c23.7,8.5,49.2,13.2,75.8,13.2c4.7,0,9.4-0.2,14-0.5C393.4,419.3,447.2,341.2,447.2,250.4z"/>
	<linearGradient id="SVGID_5_" gradientUnits="userSpaceOnUse" x1="77.3613" y1="175.1427" x2="377.0302" y2="175.1427">
		<stop  offset="0" style="stop-color:#9DCED7"/>
		<stop  offset="0.3316" style="stop-color:#8BBFC9"/>
		<stop  offset="0.9916" style="stop-color:#5E9AA4"/>
		<stop  offset="1" style="stop-color:#5D99A3"/>
	</linearGradient>
	<path fill="url(#SVGID_5_)" d="M183.6,324.4c-0.3-4.8-0.5-9.6-0.5-14.5c0-113.7,84.4-207.5,194-222.4
		c-40.2-38.1-94.6-61.6-154.4-61.6c-4.7,0-9.4,0.2-14,0.5C131.2,61.8,77.4,139.9,77.4,230.6c0,6.3,0.3,12.5,0.8,18.6
		C104.9,283.7,141.4,310.1,183.6,324.4z"/>
</g>
</svg>
